<?xml version="1.0" encoding="UTF-8" standalone="no"?>
<svg
   xmlns:dc="http://purl.org/dc/elements/1.1/"
   xmlns:cc="http://creativecommons.org/ns#"
   xmlns:rdf="http://www.w3.org/1999/02/22-rdf-syntax-ns#"
   xmlns:svg="http://www.w3.org/2000/svg"
   xmlns="http://www.w3.org/2000/svg"
   xmlns:sodipodi="http://sodipodi.sourceforge.net/DTD/sodipodi-0.dtd"
   xmlns:inkscape="http://www.inkscape.org/namespaces/inkscape"
   sodipodi:docname="Sitting.svg"
   inkscape:version="1.0 (4035a4fb49, 2020-05-01)"
   id="svg8"
   version="1.1"
   viewBox="0 0 190.56316 190.56316"
   height="190.56316mm"
   width="190.56316mm">
  <defs
     id="defs2" />
  <sodipodi:namedview
     scale-x="1"
     fit-margin-bottom="0"
     fit-margin-right="0"
     fit-margin-left="0"
     fit-margin-top="0"
     inkscape:window-maximized="1"
     inkscape:window-y="-8"
     inkscape:window-x="-8"
     inkscape:window-height="1017"
     inkscape:window-width="1920"
     showgrid="false"
     inkscape:document-rotation="0"
     inkscape:current-layer="g1605"
     inkscape:document-units="mm"
     inkscape:cy="386.31107"
     inkscape:cx="285.77936"
     inkscape:zoom="0.98994949"
     inkscape:pageshadow="2"
     inkscape:pageopacity="0.0"
     borderopacity="1.0"
     bordercolor="#666666"
     pagecolor="#ffffff"
     id="base" />
  <metadata
     id="metadata5">
    <rdf:RDF>
      <cc:Work
         rdf:about="">
        <dc:format>image/svg+xml</dc:format>
        <dc:type
           rdf:resource="http://purl.org/dc/dcmitype/StillImage" />
        <dc:title></dc:title>
      </cc:Work>
    </rdf:RDF>
  </metadata>
  <g
     transform="translate(-33.675964,-46.504895)"
     style="display:inline"
     id="layer1"
     inkscape:groupmode="layer"
     inkscape:label="Bg" />
  <g
     transform="translate(-33.675964,-46.504895)"
     style="display:inline"
     inkscape:label="face"
     id="layer2"
     inkscape:groupmode="layer">
    <g
       transform="matrix(1.3632887,0,0,1.3632887,3.0692531,-30.740597)"
       id="g1605">
      <circle
         style="display:inline;fill:#88a3b6;fill-opacity:1;fill-rule:evenodd;stroke:none;stroke-width:0.365001;stroke-linejoin:round;stroke-miterlimit:4;stroke-dasharray:none;stroke-opacity:1;paint-order:fill markers stroke"
         id="path1561"
         cx="92.341621"
         cy="126.55212"
         r="69.890976" />
      <g
         id="g1582"
         transform="translate(-1.9051383,4.2425099)">
        <path
           id="path1521"
           d="m 63.610148,106.64054 c 0,0 6.815373,7.34991 -2.806332,13.63075 -9.621703,6.28083 13.229844,5.21175 13.229844,5.21175 l 1.336346,-4.40995 c 0,0 4.543581,-9.88897 6.949006,-9.22079 2.405428,0.66817 -18.708864,-5.21176 -18.708864,-5.21176"
           style="display:inline;fill:#f2f2e3;fill-opacity:1;stroke:none;stroke-width:0.264583px;stroke-linecap:butt;stroke-linejoin:miter;stroke-opacity:1" />
        <path
           id="path848"
           d="m 63.610148,106.64054 c 0,0 21.247925,25.12334 28.998743,-9.220799 7.750819,-34.344133 -41.961315,-8.819893 -28.998743,9.220799 z"
           style="fill:#f5f4e1;fill-opacity:1;stroke:none;stroke-width:0.264583px;stroke-linecap:butt;stroke-linejoin:miter;stroke-opacity:1" />
        <path
           sodipodi:nodetypes="sccccccscczccccs"
           id="path1187"
           d="m 74.111464,73.354792 c -1.350776,0.165967 -7.134891,-0.627955 -7.417067,2.347334 0,0 -9.394169,2.634981 -4.955136,9.556853 -4.073322,3.277302 -6.495071,6.554938 -2.672695,10.690781 -1.003808,4.9964 1.483667,9.28442 5.074187,8.49727 3.449618,-0.83834 4.741252,-2.14962 5.02531,-6.014954 0,0 4.162487,-1.737654 3.2865,-4.17846 0,0 1.609175,-2.951234 3.678145,-1.910842 2.753338,1.384529 7.656897,-2.950613 4.584689,-4.67837 0,0 9.944204,-2.572874 11.297294,2.603097 0,0 1.267466,1.762546 3.772636,1.422733 2.505171,-0.339812 7.030453,-6.904142 1.102657,-6.157269 0,0 3.836266,-7.721175 -3.380009,-7.587539 0,0 -3.357081,-7.368906 -7.806169,-3.073599 0,0 -0.759717,-5.086636 -7.157482,-3.56654 0,0 -1.960423,1.745722 -4.43286,2.049505 z"
           style="display:inline;fill:#000000;fill-opacity:1;stroke:none;stroke-width:0.264583px;stroke-linecap:butt;stroke-linejoin:miter;stroke-opacity:1" />
        <g
           id="g1511"
           style="display:inline">
          <path
             style="fill:none;stroke:#000000;stroke-width:0.665;stroke-linecap:butt;stroke-linejoin:miter;stroke-miterlimit:4;stroke-dasharray:none;stroke-opacity:1"
             d="m 80.347901,93.11002 9.120574,-0.133633 -0.835218,8.051493 -9.254207,-0.66817 z"
             id="path1502" />
          <path
             style="fill:none;stroke:#000000;stroke-width:0.465;stroke-linecap:butt;stroke-linejoin:miter;stroke-miterlimit:4;stroke-dasharray:none;stroke-opacity:1"
             d="m 71.227329,96.484299 8.719667,0.467722"
             id="path1504"
             sodipodi:nodetypes="cc" />
          <path
             style="fill:none;stroke:#000000;stroke-width:0.465;stroke-linecap:butt;stroke-linejoin:miter;stroke-miterlimit:4;stroke-dasharray:none;stroke-opacity:1"
             d="M 89.03416,97.152472 92.742526,96.91861"
             id="path1506"
             sodipodi:nodetypes="cc" />
        </g>
        <path
           sodipodi:nodetypes="cc"
           id="path1517"
           d="m 87.007694,110.83857 c 0,0 -2.338609,-0.0334 -5.946748,-1.33634"
           style="display:inline;fill:none;stroke:#000000;stroke-width:0.365;stroke-linecap:butt;stroke-linejoin:miter;stroke-miterlimit:4;stroke-dasharray:none;stroke-opacity:1" />
        <path
           sodipodi:nodetypes="csscccsssc"
           id="path1549"
           d="m 86.414806,147.5997 c 0,0 7.039805,-11.00856 13.985114,-11.05581 3.59566,-0.0245 10.63059,6.23662 13.74889,10.39435 3.1183,4.15774 10.76757,12.77193 10.76757,12.77193 l -3.49153,6.22138 -3.35749,-1.59731 c 0,0 -9.07519,-10.1862 -10.02013,-11.32013 -0.94494,-1.13393 -3.75683,-5.68978 -6.78064,-6.06775 -3.023816,-0.37798 -8.512576,8.67166 -9.552013,9.42761 -1.039434,0.75596 -5.299771,-8.77427 -5.299771,-8.77427 z"
           style="display:inline;fill:#f5f4e1;fill-opacity:1;stroke:none;stroke-width:0.264583px;stroke-linecap:butt;stroke-linejoin:miter;stroke-opacity:1" />
        <path
           id="path1559"
           d="m 83.087413,153.61316 -6.074765,-2.70616 -5.751912,1.87094 c 0,0 4.443357,8.11831 4.309721,8.11831 -0.133633,0 7.516956,-7.28309 7.516956,-7.28309 z"
           style="fill:#b7a740;fill-opacity:1;stroke:none;stroke-width:0.264583px;stroke-linecap:butt;stroke-linejoin:miter;stroke-opacity:1" />
        <path
           sodipodi:nodetypes="ccccc"
           id="path1538"
           d="m 89.01339,144.10342 -14.741068,17.95387 21.639135,4.8192 -2.819186,-9.41026 z"
           style="display:inline;fill:#b7a740;fill-opacity:1;stroke:none;stroke-width:0.264583px;stroke-linecap:butt;stroke-linejoin:miter;stroke-opacity:1" />
        <path
           id="path1555"
           d="m 129.53631,163.01672 c 0,0 6.45729,2.32463 6.66392,3.92603 0.20663,1.60141 -4.44261,3.82271 -8.73025,3.61609 -4.28764,-0.20664 2.06633,-7.54212 2.06633,-7.54212 z"
           style="display:inline;fill:#000000;fill-opacity:1;stroke:none;stroke-width:0.289286px;stroke-linecap:butt;stroke-linejoin:miter;stroke-opacity:1" />
        <path
           sodipodi:nodetypes="ccssssc"
           id="path1553"
           d="m 119.72396,164.32515 c 0,0 3.25686,-2.35385 4.36163,-7.97811 0,0 0.45195,-1.35585 3.06322,-1.55672 2.61126,-0.20087 4.41907,2.00867 4.31863,3.9169 -0.10044,1.90823 -1.30563,9.9429 -2.81213,11.1481 -1.5065,1.2052 -6.92746,2.52284 -8.73526,2.42241 -1.8078,-0.10044 -0.19609,-7.95258 -0.19609,-7.95258 z"
           style="display:inline;fill:#0c0c0c;fill-opacity:1;stroke:none;stroke-width:0.281213px;stroke-linecap:butt;stroke-linejoin:miter;stroke-opacity:1" />
        <path
           id="path1547"
           d="m 93.076635,172.82961 26.930805,-0.56696 -0.28348,-7.9375 -25.229913,-1.79539 z"
           style="display:inline;fill:#f5f4e1;fill-opacity:1;stroke:none;stroke-width:0.264583px;stroke-linecap:butt;stroke-linejoin:miter;stroke-opacity:1" />
        <path
           sodipodi:nodetypes="cscccsc"
           id="path1535"
           d="m 56.696429,157.2381 c 0.25127,3.12241 -3.118305,16.81993 20.12723,16.34746 20.882291,-0.42444 21.544642,-0.56696 21.544642,-0.56696 l 0.661459,-11.15029 -32.316963,-6.04762 c 0,0 -1.166666,-2.06329 -2.058385,-2.26426 -2.333074,-0.5258 -7.831277,1.03173 -7.957983,3.68167 z"
           style="display:inline;fill:#bdac42;fill-opacity:1;stroke:none;stroke-width:0.264583px;stroke-linecap:butt;stroke-linejoin:miter;stroke-opacity:1" />
        <path
           id="path1530"
           d="m 63.311012,117.73958 c 0,0 -6.331101,3.87426 -7.370538,8.12649 -1.039434,4.25223 -7.559521,18.89881 -0.188986,26.55283 l 0.944941,4.8192 20.31622,-6.3311 c 0,0 2.551339,-24.28497 -1.228423,-29.95462 0,0 -10.205357,0.18898 -12.473214,-3.2128 z"
           style="display:inline;fill:#232323;fill-opacity:1;stroke:none;stroke-width:0.264583px;stroke-linecap:butt;stroke-linejoin:miter;stroke-opacity:1" />
        <path
           sodipodi:nodetypes="cscszssssscc"
           id="path1543"
           d="m 58.932931,135.43883 c 0,0 3.926012,18.76144 6.865978,20.29824 2.939965,1.5368 24.872278,5.49326 24.872278,5.49326 0,0 2.672695,1.80407 6.080381,1.00226 3.407692,-0.80181 3.274052,-3.27405 1.436574,-4.2429 -1.837481,-0.96886 -2.372016,-0.3675 -3.107007,-0.56795 -0.734991,-0.20045 1.548263,-0.1885 1.564968,-0.70635 0.0167,-0.51784 0.138875,-0.81376 -1.498151,-0.76365 -1.637026,0.0501 -2.706104,1.20271 -3.173826,1.1693 -0.467721,-0.0334 -17.298171,-7.2396 -18.133389,-7.64051 -0.835217,-0.4009 -3.58226,-14.3424 -3.58226,-14.3424 z"
           style="display:inline;fill:#f5f4e1;fill-opacity:1;stroke:none;stroke-width:0.264583px;stroke-linecap:butt;stroke-linejoin:miter;stroke-opacity:1" />
        <path
           sodipodi:nodetypes="cscc"
           id="path1541"
           d="m 56.928408,139.11379 c 0,0 1.238525,-15.50822 7.082642,-16.16981 7.082644,-0.8018 7.884451,3.20724 9.354433,13.49711 z"
           style="display:inline;fill:#292929;fill-opacity:1;stroke:none;stroke-width:0.264583px;stroke-linecap:butt;stroke-linejoin:miter;stroke-opacity:1" />
      </g>
    </g>
  </g>
</svg>
